<svg version="1.1" id="Layer_1" xmlns="http://www.w3.org/2000/svg" xmlns:xlink="http://www.w3.org/1999/xlink" x="0px" y="0px"
	 width="100%" viewBox="0 0 910 259" enable-background="new 0 0 910 259" xml:space="preserve">
<path fill="#010203" opacity="1.000000" stroke="none" 
	d="
M578.000000,260.000000 
	C385.333344,260.000000 193.166718,260.000000 1.000051,260.000000 
	C1.000034,173.666702 1.000034,87.333397 1.000017,1.000075 
	C304.333282,1.000050 607.666565,1.000050 910.999878,1.000025 
	C910.999878,87.333252 910.999878,173.666504 910.999939,259.999878 
	C800.166687,260.000000 689.333313,260.000000 578.000000,260.000000 
M400.613647,150.839508 
	C400.844818,150.302704 401.075958,149.765884 401.046722,149.055420 
	C401.046722,149.055420 401.285248,149.258102 401.906982,149.002396 
	C402.867462,146.979630 403.827942,144.956848 404.930511,142.946930 
	C404.930511,142.946930 404.920227,142.804672 405.285675,142.716568 
	C405.461761,142.509598 405.637848,142.302643 405.813965,142.095688 
	C405.701080,142.099869 405.588196,142.104050 406.096039,141.733459 
	C406.383728,141.079086 406.671448,140.424713 407.486115,139.453201 
	C408.631958,138.487991 409.777771,137.522797 410.883606,136.591309 
	C410.008850,136.335510 409.486115,136.182663 408.765442,135.274963 
	C406.463623,136.059525 403.563629,136.218842 401.969910,137.743561 
	C396.777100,142.711365 392.200439,148.316757 387.115479,153.405838 
	C383.444916,157.079376 379.246033,160.218506 375.451843,163.776230 
	C366.010956,172.628632 354.955627,178.290131 342.327148,180.960724 
	C339.215424,181.618790 336.078217,182.939850 333.005005,182.800827 
	C329.052307,182.622025 325.167542,181.197693 321.226379,180.453674 
	C313.429626,178.981750 306.319580,171.967621 305.720734,165.031311 
	C305.065063,157.436295 309.607605,150.535507 317.989685,147.726639 
	C322.484314,146.220505 327.352417,145.533524 332.105011,145.169388 
	C337.671844,144.742889 343.296356,145.069611 349.057770,145.069611 
	C349.057770,138.660477 349.057770,132.896530 349.057770,126.345657 
	C344.021118,126.600700 339.179901,126.380081 334.516479,127.186974 
	C326.782196,128.525208 319.030334,130.085815 311.523743,132.343536 
	C298.966614,136.120255 288.212799,142.195541 285.319672,157.019669 
	C285.108643,157.326630 284.897614,157.633591 284.314972,158.457733 
	C284.398438,159.071152 284.481903,159.684586 284.072205,160.881592 
	C284.198578,163.534149 284.324921,166.186722 284.227325,169.695343 
	C284.373444,171.437378 284.519562,173.179428 284.340576,175.584396 
	C286.585754,178.987885 288.830933,182.391373 291.407562,186.317429 
	C291.770935,186.495743 292.134308,186.674057 292.414093,187.488007 
	C293.318665,188.232162 294.223236,188.976303 295.120697,189.896027 
	C295.120697,189.896027 295.293274,189.862976 295.392303,190.525818 
	C301.296326,193.105682 307.200317,195.685562 313.631012,198.705566 
	C314.078308,198.760025 314.525574,198.814468 315.681702,199.236282 
	C317.329865,199.472534 318.971100,199.788116 320.627258,199.932831 
	C338.039673,201.454300 354.460297,199.290680 368.584564,186.974136 
	C368.882568,186.824753 369.047607,186.584167 369.780182,186.142349 
	C375.550720,180.119904 381.321259,174.097458 387.014679,168.008163 
	C387.014679,168.008163 387.061401,168.098923 387.632446,168.010315 
	C387.764282,167.672928 387.896118,167.335526 388.441559,166.733383 
	C388.687622,166.322220 388.933685,165.911072 389.793304,165.358749 
	C389.970428,164.998871 390.147522,164.639008 390.063019,164.091629 
	C390.063019,164.091629 390.297394,164.312256 390.929443,164.105942 
	C392.579651,161.707886 394.229858,159.309845 396.264008,156.438141 
	C396.830139,155.610550 397.396271,154.782959 398.525635,153.685242 
	C399.024445,152.800003 399.523254,151.914764 400.001221,151.003571 
	C400.001221,151.003571 400.030579,151.017792 400.613647,150.839508 
M99.090324,164.780014 
	C99.090324,164.780014 99.345558,164.644791 99.258911,164.025162 
	C98.491631,163.346146 97.724350,162.667114 96.958549,161.408035 
	C96.679703,160.924057 96.400864,160.440079 96.102127,159.289780 
	C95.370735,158.191177 94.639343,157.092560 93.978569,155.369385 
	C93.685265,154.594467 93.391968,153.819534 93.222359,152.184616 
	C92.597206,148.084427 91.972054,143.984253 91.713478,139.323257 
	C91.746849,138.883118 91.780212,138.442978 92.230011,137.469986 
	C92.527168,135.942886 92.824318,134.415771 93.476822,132.269333 
	C93.734268,131.359543 93.991707,130.449753 94.791328,129.398621 
	C95.248589,128.253555 95.705849,127.108475 96.542061,125.674698 
	C96.785316,125.440918 96.907837,125.155342 97.442574,124.504227 
	C97.963417,123.650688 98.484268,122.797150 99.408394,121.673256 
	C99.671440,121.278717 99.934486,120.884171 100.806107,120.367638 
	C101.157349,119.882843 101.508591,119.398048 102.411858,118.514038 
	C102.675095,118.309669 102.938957,118.106094 103.201477,117.900803 
	C122.605621,102.727089 150.805710,110.600578 157.306061,137.467316 
	C159.244568,145.479462 158.354767,154.256226 155.311203,162.371109 
	C151.731689,171.914917 147.374954,181.041458 141.139587,189.189148 
	C133.614990,199.021454 125.816040,208.451981 113.321533,212.372787 
	C109.142380,213.684204 105.124435,215.509415 100.369141,217.181320 
	C99.228310,218.132523 98.087479,219.083725 96.905373,220.069351 
	C98.381683,222.006912 99.428627,223.380966 100.520325,224.969177 
	C100.520325,224.969177 100.698326,225.096344 100.860817,225.821442 
	C106.996605,235.080551 113.009109,244.425339 119.346771,253.544144 
	C121.140671,256.125214 123.637352,259.204681 127.045052,255.075256 
	C127.045052,255.075256 127.275276,255.275055 127.930344,255.146439 
	C131.139450,250.395065 134.348541,245.643692 137.852203,240.782867 
	C137.852203,240.782867 137.858017,240.468674 138.390610,240.196365 
	C139.988098,237.452484 141.585587,234.708618 143.357193,231.854568 
	C143.357193,231.854568 143.373779,231.649200 143.999420,231.343369 
	C147.136932,225.859161 150.274445,220.374954 153.931793,214.366608 
	C163.276352,196.320190 170.717850,177.653656 174.425278,157.506119 
	C177.480209,140.904556 175.046890,125.773964 165.352066,111.245087 
	C163.197998,108.953506 161.043930,106.661919 158.471878,103.959999 
	C157.986908,103.640602 157.501938,103.321213 156.836121,102.382378 
	C155.943848,101.804916 155.051559,101.227455 153.780289,100.110680 
	C151.407822,98.915520 149.035355,97.720360 146.198975,96.008560 
	C144.443405,95.431259 142.687851,94.853958 140.310547,93.768295 
	C137.630386,93.178871 134.974182,92.248123 132.265991,92.058067 
	C119.346008,91.151344 107.028175,93.121529 96.181274,100.766747 
	C88.971848,105.848145 82.508286,111.772781 79.369644,120.277519 
	C77.420700,125.558571 75.963814,131.069397 74.841209,136.589996 
	C74.112358,140.174255 73.899857,144.015610 74.303368,147.647629 
	C75.260262,156.260605 76.678955,164.824219 78.022812,173.390259 
	C78.239044,174.768570 79.029381,176.057220 79.557457,177.386078 
	C80.367569,179.424667 81.180382,181.462173 81.992043,183.500137 
	C79.485947,184.487366 77.041397,186.060287 74.460068,186.331558 
	C70.022835,186.797852 65.495430,186.319443 61.014919,186.483994 
	C56.231220,186.659698 52.738129,184.834183 50.852173,179.604309 
	C50.902050,153.976624 51.352165,128.340042 50.781746,102.726166 
	C50.585716,93.923454 53.334423,87.556625 59.726234,82.120064 
	C60.637455,81.345024 60.886261,79.791168 61.540390,78.517395 
	C61.540390,78.517395 61.641708,78.440277 62.306053,78.744331 
	C62.850780,78.137558 63.395508,77.530785 64.000496,76.998352 
	C64.000496,76.998352 63.932995,76.930969 64.682587,77.106377 
	C65.735962,76.749580 66.975525,76.636581 67.812958,75.997025 
	C73.928818,71.326256 80.299835,66.902061 85.843376,61.616623 
	C87.798912,59.752136 92.664536,59.259876 91.341545,54.317688 
	C91.341545,54.317688 91.620682,54.225517 92.283501,54.668037 
	C95.081978,54.076454 97.934151,53.536251 97.350990,49.317451 
	C97.350990,49.317451 97.625717,49.240887 98.258713,49.719868 
	C99.471001,48.443745 100.683281,47.167625 101.996483,46.000523 
	C101.996483,46.000523 101.901039,45.887627 102.670799,46.046066 
	C106.889771,43.212669 111.282242,40.597637 115.248466,37.446156 
	C117.013412,36.043755 117.919296,33.560200 119.364166,31.342022 
	C119.364166,31.342022 119.618118,31.249788 120.410461,31.656113 
	C122.811638,31.249662 125.212807,30.843212 128.292542,30.537542 
	C131.154495,32.992733 133.949814,35.530968 136.889191,37.889668 
	C156.457520,53.592258 176.169693,69.119682 195.507690,85.100250 
	C198.023361,87.179153 199.590851,91.425941 199.967712,94.848061 
	C200.635559,100.912697 200.004059,107.115082 200.001617,113.259865 
	C199.993820,132.902420 199.960999,152.545319 200.064011,172.187408 
	C200.132721,185.294022 200.221191,185.191498 187.083664,186.185242 
	C183.374649,186.465805 179.201401,186.779724 179.518448,192.451752 
	C179.582230,193.592651 178.457520,194.799973 177.113968,196.099289 
	C176.904892,197.845627 176.695831,199.591980 176.478790,201.793762 
	C176.456802,202.096680 176.440475,202.399887 176.198944,203.451630 
	C179.373962,206.403976 187.961273,206.861694 192.792740,204.231796 
	C193.138321,204.212845 193.483887,204.193909 194.413269,204.483109 
	C195.985031,204.007736 197.556793,203.532364 199.449249,202.934387 
	C199.449249,202.934387 199.784332,202.859604 200.592957,203.020355 
	C202.632141,202.421753 204.912125,202.212555 206.655045,201.134827 
	C209.389191,199.444214 213.378799,198.361679 212.410828,193.410416 
	C212.410828,193.410416 212.640472,193.246185 213.300827,193.574356 
	C218.305252,189.903122 219.904800,184.084808 217.380005,177.953552 
	C217.421097,176.401840 217.462204,174.850143 218.144669,172.880386 
	C217.975586,167.145264 217.806519,161.410156 217.585434,154.784515 
	C217.559250,145.962540 217.533066,137.140579 218.120529,127.916733 
	C217.954819,124.836662 217.789124,121.756599 217.573425,118.007904 
	C217.604431,117.115692 217.635422,116.223488 218.263062,115.042915 
	C220.658020,113.524384 223.052963,112.005852 225.895111,111.063156 
	C227.796310,111.943192 229.797241,112.658417 231.578568,113.736511 
	C235.676941,116.216904 239.315643,115.529678 242.299911,112.098076 
	C245.249649,108.706200 246.529663,104.796509 243.318192,100.823616 
	C241.470108,98.537361 239.423950,96.327553 237.138504,94.492348 
	C223.980118,83.926270 210.629761,73.598152 197.521484,62.971039 
	C175.794754,45.356739 154.211060,27.566109 132.547241,9.874072 
	C127.246574,5.545217 124.302078,5.180250 118.706543,9.305096 
	C112.162903,14.128857 106.015884,19.493057 99.728424,24.661274 
	C92.664406,30.467806 85.249290,35.921593 78.728989,42.288757 
	C74.460541,46.456959 70.683258,50.304897 63.868397,49.220924 
	C63.868397,44.953022 63.698566,40.620804 63.919296,36.308578 
	C64.114433,32.496311 62.287506,30.596428 58.789829,30.443892 
	C53.473362,30.212034 48.070759,29.823917 42.850941,30.551300 
	C40.748463,30.844280 37.458168,33.863155 37.404366,35.719578 
	C37.126514,45.307491 37.346054,54.952087 38.143005,64.514336 
	C38.693974,71.125206 37.006184,76.865936 32.245060,80.848030 
	C24.953243,86.946754 16.765425,91.962379 9.260376,97.824921 
	C6.910942,99.660164 4.938194,102.514343 3.866937,105.313164 
	C2.530413,108.805023 4.627863,112.338409 7.583264,113.660393 
	C10.255151,114.855545 14.313573,115.159576 16.852890,113.950394 
	C21.196640,111.881958 24.831287,108.324409 28.702356,105.437988 
	C29.324591,106.523605 29.705307,107.688637 30.480768,108.453392 
	C33.694130,111.622337 34.467850,114.877403 31.549311,118.710342 
	C31.044230,119.373680 31.256773,120.636803 31.256081,121.622955 
	C31.242649,140.780106 30.905483,159.946320 31.413671,179.090012 
	C31.619835,186.856232 34.882309,193.811798 41.440201,198.961563 
	C49.178791,205.038513 58.068195,204.830048 67.756218,205.024139 
	C75.555649,204.722641 83.439468,205.040344 91.136986,203.991180 
	C107.317604,201.785812 120.786087,194.512527 130.129028,180.641357 
	C130.982407,179.374374 131.657898,177.987564 132.837601,175.916077 
	C130.510635,176.051575 129.229950,176.126144 127.323090,176.042679 
	C126.902740,176.111404 126.482399,176.180130 125.207405,176.021057 
	C123.447502,176.112305 121.687607,176.203552 119.207367,176.089035 
	C118.462433,176.098419 117.717499,176.107803 116.427971,175.776276 
	C115.594780,175.641617 114.761597,175.506958 113.559433,174.935791 
	C113.191887,174.874252 112.824341,174.812714 112.094872,174.258560 
	C111.374237,173.942841 110.653603,173.627121 109.420456,172.943008 
	C108.862740,172.652252 108.305031,172.361496 107.633125,171.441269 
	C106.428879,170.603699 105.224632,169.766129 103.713570,168.518494 
	C103.261337,168.289764 102.809105,168.061020 102.183319,167.212906 
	C101.243629,166.371399 100.303940,165.529892 99.090324,164.780014 
M881.997864,170.994629 
	C881.997864,170.994629 882.054382,170.965729 882.088196,171.816818 
	C882.116638,173.230530 882.145081,174.644226 882.028687,176.786560 
	C880.782288,177.930786 879.722534,179.476746 878.260193,180.156006 
	C866.035645,185.834244 854.480530,182.650497 843.259338,177.039368 
	C835.880920,173.349792 833.346924,174.316483 831.394775,182.080765 
	C831.238159,182.703629 831.053833,183.441879 830.622192,183.854095 
	C826.668152,187.630463 828.637329,190.282043 832.333252,192.372818 
	C841.672485,197.655914 851.907837,199.741882 862.486572,199.980423 
	C873.128723,200.220398 883.430969,198.635315 892.249451,191.949112 
	C900.496094,185.696457 903.458984,177.092560 901.866699,167.221924 
	C900.423950,158.277847 894.958557,152.302322 885.937927,150.076996 
	C877.968628,148.111069 870.002625,146.104446 861.968262,144.438354 
	C856.082947,143.217911 850.814270,138.928467 850.807617,134.703247 
	C850.800415,130.117386 854.900513,126.174126 861.772827,125.997963 
	C868.151001,125.834473 874.790894,126.336891 880.918579,128.004608 
	C892.353271,131.116684 892.116882,131.507812 896.815430,120.336838 
	C898.385620,116.603783 897.760986,114.488716 893.948059,112.984840 
	C877.038391,106.315262 860.178162,106.673401 843.334961,113.123085 
	C842.129211,113.584793 840.688110,114.259949 840.062561,115.272209 
	C836.417053,121.171753 832.625183,127.031685 829.656311,133.272995 
	C828.503296,135.696960 828.457581,139.452866 829.478394,141.963181 
	C833.429749,151.680405 840.530457,158.060410 851.108948,160.221115 
	C859.246765,161.883301 867.336731,163.780060 875.827637,166.056656 
	C876.575562,166.307281 877.323486,166.557922 878.318604,167.118988 
	C878.318604,167.118988 878.706848,167.200729 878.938599,167.828033 
	C879.971375,168.866837 881.004089,169.905640 881.997864,170.994629 
M784.695374,205.827835 
	C786.143188,201.890213 787.590942,197.952606 789.396667,193.407303 
	C800.497314,165.889328 811.597900,138.371368 823.024963,110.044205 
	C816.674255,110.044205 810.962891,108.906998 805.957825,110.302757 
	C797.840881,112.566338 798.715393,121.504593 795.811279,127.563194 
	C793.458008,132.472565 792.158325,137.882278 790.322205,143.045456 
	C788.496948,148.177704 786.553223,153.267761 784.724182,158.398712 
	C783.703308,161.262650 783.163452,164.367783 781.716064,166.981827 
	C780.946289,168.372269 778.689880,169.678497 777.131775,169.647507 
	C775.994324,169.624893 774.438293,167.538498 773.859314,166.062073 
	C766.978760,148.516357 760.295105,130.893341 753.384583,113.359619 
	C752.826904,111.944527 751.041565,110.142235 749.720886,110.050934 
	C744.251953,109.672859 738.737671,109.748764 733.249817,109.939812 
	C730.816406,110.024529 728.744751,111.502220 730.347534,114.142441 
	C733.995850,120.152069 736.772156,126.308792 738.739929,133.191574 
	C741.212097,141.838379 745.272705,150.120926 749.379028,158.188538 
	C754.855530,168.948364 758.911560,180.207779 763.385620,191.351501 
	C766.606812,199.374725 764.246094,204.578476 760.957703,210.664841 
	C758.562134,215.098694 754.667175,215.652512 750.386658,214.160492 
	C747.107178,213.017365 743.975525,211.437805 740.810120,209.982773 
	C737.772217,208.586365 735.933655,209.229599 734.782227,212.607315 
	C733.657288,215.907333 731.696411,218.925781 730.613586,222.235001 
	C730.196411,223.509888 730.664246,225.886536 731.621460,226.668625 
	C738.380798,232.191376 758.592651,235.395752 768.707458,228.062317 
	C769.321472,227.426514 769.935425,226.790726 771.105896,226.041977 
	C771.738403,225.378098 772.370911,224.714218 773.647034,223.829102 
	C777.142639,217.905746 780.638245,211.982391 784.031189,206.058426 
	C784.031189,206.058426 784.114990,206.117722 784.695374,205.827835 
M537.007019,101.004555 
	C537.007019,101.004555 537.013428,100.965538 537.084229,101.660446 
	C539.926636,103.217056 542.630371,105.240143 545.667114,106.142708 
	C547.300354,106.628113 550.487793,105.789589 551.267334,104.509315 
	C553.598328,100.680786 555.387817,96.433701 556.730469,92.143990 
	C557.156372,90.783218 555.514832,88.775368 554.325195,86.819588 
	C553.876038,86.243309 553.426880,85.667023 552.653625,84.561432 
	C552.266052,84.517952 551.878418,84.474472 550.815735,84.218712 
	C537.365845,78.305580 523.461853,75.716637 508.793671,78.251053 
	C493.375641,80.915031 480.084473,86.815331 475.788452,103.411499 
	C474.011658,110.275475 472.770660,118.449493 474.865936,124.857079 
	C477.681091,133.466141 484.671417,140.210175 494.042084,143.174652 
	C501.642487,145.579102 509.327271,147.720673 516.903381,150.196915 
	C522.092896,151.893127 527.249573,153.757477 532.254456,155.930237 
	C536.478149,157.763870 540.547485,165.268951 539.246704,169.828735 
	C538.037537,174.067627 532.532288,179.460556 527.634888,180.180740 
	C517.166748,181.720184 506.728302,181.561722 496.796631,177.673248 
	C491.951599,175.776321 487.574097,172.667175 483.027405,170.033478 
	C480.633057,168.646530 478.066071,167.074371 476.819214,170.967133 
	C475.572144,174.860519 474.868896,178.937592 474.072418,182.962875 
	C473.407837,186.321320 474.213837,188.870270 477.609192,190.720078 
	C488.170258,196.473785 499.335968,199.664627 511.371002,200.204651 
	C523.809387,200.762787 535.634338,199.076767 546.169067,191.937057 
	C556.892883,184.669266 560.678711,173.995773 559.921082,161.650635 
	C559.121094,148.615051 552.195740,139.592545 539.852295,135.338409 
	C528.947083,131.579971 517.824890,128.449158 506.787170,125.078308 
	C500.645721,123.202751 495.374146,117.461571 495.142853,112.285995 
	C494.848083,105.688400 498.102417,100.064934 505.723938,98.614052 
	C513.197144,97.191406 521.131042,98.188713 529.015747,98.778839 
	C530.378052,98.932976 531.740356,99.087105 533.628662,99.243629 
	C534.068909,99.513748 534.509155,99.783875 535.229553,100.637985 
	C535.831177,100.750397 536.432739,100.862801 537.007019,101.004555 
M571.779663,127.356644 
	C574.503723,127.313316 577.227844,127.269997 580.476929,127.674232 
	C580.899292,127.843315 581.321594,128.012390 582.040649,128.782654 
	C582.999023,129.894104 583.957336,131.005539 584.984436,132.903671 
	C584.448669,135.087280 583.454773,137.270447 583.452637,139.454575 
	C583.440063,152.260391 583.439392,165.073914 583.873413,177.869934 
	C584.189514,187.185791 590.636719,195.232666 599.569031,198.139114 
	C607.398376,200.686646 615.342590,200.316177 623.162476,198.083282 
	C631.450806,195.716644 632.186890,194.061325 629.171448,186.180710 
	C626.686890,179.687531 625.743774,179.089676 618.865479,181.391541 
	C613.888000,183.057312 606.128479,180.977127 604.489197,174.409882 
	C603.772827,171.540161 602.966553,168.595688 602.918945,165.673462 
	C602.737183,154.523712 602.830505,143.369125 602.868286,132.216507 
	C602.873657,130.625168 603.138672,129.034729 603.318054,127.065002 
	C611.024902,127.065002 618.275208,127.065002 625.227600,127.065002 
	C625.453674,122.040474 625.896301,117.453911 625.686584,112.897362 
	C625.638611,111.855789 623.344666,110.090736 622.077454,110.084541 
	C617.995544,110.064568 613.913818,110.981560 609.825562,111.033661 
	C604.258179,111.104614 602.866089,109.484306 602.874878,104.025200 
	C602.883606,98.631775 602.876831,93.238335 602.876831,87.694931 
	C600.852539,87.603310 599.542297,87.504417 598.231140,87.490677 
	C581.777832,87.318245 583.061890,87.190964 583.793945,103.369934 
	C584.037964,108.763603 582.281372,110.753166 576.694397,111.032906 
	C574.134827,111.161064 571.597412,111.732544 568.264526,112.209808 
	C567.948303,116.335205 567.502197,120.458931 567.449402,124.587685 
	C567.441040,125.242622 569.204590,125.920219 570.606506,126.866508 
	C570.783875,126.888000 570.961243,126.909500 571.779663,127.356644 
M657.016174,112.474022 
	C647.120605,116.020744 645.879333,117.653595 647.282104,125.279617 
	C648.571655,132.290466 651.745544,133.748199 658.057556,130.518494 
	C665.007446,126.962334 672.410034,125.513420 680.256836,126.000801 
	C689.155701,126.553505 697.028442,132.439560 699.112183,140.816223 
	C699.407959,142.005295 698.503174,143.807205 697.632507,144.915924 
	C694.472046,148.940170 689.719360,147.782486 686.081299,146.884720 
	C677.720703,144.821594 669.817017,146.977432 661.919312,148.392715 
	C645.056335,151.414581 636.197571,172.563004 644.598755,185.137802 
	C648.259460,190.617081 652.017578,196.416138 659.468140,198.226700 
	C673.453979,201.625412 686.410156,200.964966 696.380493,191.534622 
	C698.440491,193.741791 700.107849,197.175049 702.371460,197.627945 
	C707.946411,198.743347 713.795410,198.489365 719.976257,198.808868 
	C719.976257,188.108078 720.058105,178.471954 719.954224,168.837845 
	C719.841187,158.360168 719.796753,147.872559 719.284851,137.410690 
	C718.632202,124.073586 705.500122,111.334152 692.466553,109.136566 
	C680.598450,107.135498 669.144165,108.889709 657.016174,112.474022 
M392.713867,177.928223 
	C390.510254,180.733459 387.763611,183.268661 386.208160,186.396255 
	C382.081482,194.694092 384.568237,198.700180 393.592438,198.713104 
	C413.746948,198.741959 433.901733,198.640488 454.056274,198.559341 
	C455.661926,198.552887 457.266632,198.293747 459.017944,198.139130 
	C459.017944,193.766663 458.867828,189.776123 459.058777,185.802002 
	C459.262543,181.562134 457.280792,180.296738 453.306915,180.446289 
	C443.729706,180.806702 434.142181,181.073395 424.560120,181.037247 
	C420.726959,181.022797 416.897125,180.112762 412.259552,179.504669 
	C426.013031,162.076477 438.937439,145.421036 452.219818,129.056122 
	C455.691528,124.778770 457.424805,120.475243 457.182556,115.027481 
	C456.957306,109.962692 456.048370,108.948669 451.045288,109.242950 
	C440.181335,109.881973 429.316498,110.674286 418.441620,110.898338 
	C411.529999,111.040733 404.586060,110.441635 397.680817,109.878319 
	C386.427795,108.960320 386.436218,108.857941 385.968689,120.313438 
	C385.948303,120.812637 386.036896,121.348701 385.885956,121.805168 
	C384.252655,126.744316 386.862396,127.338860 390.956726,127.272171 
	C401.763184,127.096184 412.578674,127.078926 423.380005,127.379013 
	C425.165985,127.428619 427.493378,129.046738 428.423950,130.618744 
	C428.948578,131.505005 427.372650,133.958176 426.307983,135.379700 
	C424.987518,137.142731 422.964111,138.387970 421.687897,140.173843 
	C417.802979,145.610275 414.235107,151.273804 410.331573,156.696152 
	C408.464752,159.289368 406.067383,161.494446 404.001556,163.952026 
	C400.306976,168.347214 396.681488,172.800491 392.713867,177.928223 
M340.964569,96.156357 
	C346.511505,97.854454 352.159210,99.288155 357.567841,101.349197 
	C360.843994,102.597633 362.741058,102.810661 363.778076,98.829308 
	C364.693604,95.314156 366.017242,91.870872 367.503876,88.549477 
	C368.755798,85.752480 368.038849,83.955498 365.352783,83.062790 
	C361.445496,81.764206 357.452667,80.718552 353.483032,79.612831 
	C337.266571,75.095802 321.378021,76.377243 306.114685,83.181526 
	C299.799866,85.996635 295.338104,90.778397 292.272369,97.609962 
	C288.742340,105.476181 287.357910,112.812904 289.636780,121.143120 
	C290.878204,125.680962 293.690186,129.153229 296.897247,127.977196 
	C302.611877,125.881584 308.226776,123.514061 313.977570,121.222725 
	C313.833160,120.774773 313.769226,120.267799 313.526794,119.869438 
	C306.803101,108.820099 310.105347,99.842087 322.702026,96.947639 
	C328.258636,95.670853 334.259796,96.328918 340.964569,96.156357 
z"/>
<path fill="#F5F8F8" opacity="1.000000" stroke="none" 
	d="
M67.068314,204.618958 
	C58.068195,204.830048 49.178791,205.038513 41.440201,198.961563 
	C34.882309,193.811798 31.619835,186.856232 31.413671,179.090012 
	C30.905483,159.946320 31.242649,140.780106 31.256081,121.622955 
	C31.256773,120.636803 31.044230,119.373680 31.549311,118.710342 
	C34.467850,114.877403 33.694130,111.622337 30.480768,108.453392 
	C29.705307,107.688637 29.324591,106.523605 28.702356,105.437988 
	C24.831287,108.324409 21.196640,111.881958 16.852890,113.950394 
	C14.313573,115.159576 10.255151,114.855545 7.583264,113.660393 
	C4.627863,112.338409 2.530413,108.805023 3.866937,105.313164 
	C4.938194,102.514343 6.910942,99.660164 9.260376,97.824921 
	C16.765425,91.962379 24.953243,86.946754 32.245060,80.848030 
	C37.006184,76.865936 38.693974,71.125206 38.143005,64.514336 
	C37.346054,54.952087 37.126514,45.307491 37.404366,35.719578 
	C37.458168,33.863155 40.748463,30.844280 42.850941,30.551300 
	C48.070759,29.823917 53.473362,30.212034 58.789829,30.443892 
	C62.287506,30.596428 64.114433,32.496311 63.919296,36.308578 
	C63.698566,40.620804 63.868397,44.953022 63.868397,49.220924 
	C70.683258,50.304897 74.460541,46.456959 78.728989,42.288757 
	C85.249290,35.921593 92.664406,30.467806 99.728424,24.661274 
	C106.015884,19.493057 112.162903,14.128857 118.706543,9.305096 
	C124.302078,5.180250 127.246574,5.545217 132.547241,9.874072 
	C154.211060,27.566109 175.794754,45.356739 197.521484,62.971039 
	C210.629761,73.598152 223.980118,83.926270 237.138504,94.492348 
	C239.423950,96.327553 241.470108,98.537361 243.318192,100.823616 
	C246.529663,104.796509 245.249649,108.706200 242.299911,112.098076 
	C239.315643,115.529678 235.676941,116.216904 231.578568,113.736511 
	C229.797241,112.658417 227.796310,111.943192 225.511200,110.478828 
	C222.783020,108.187607 220.438766,106.480721 217.666428,104.462128 
	C217.666428,108.549820 217.666428,111.940552 217.666428,115.331276 
	C217.635422,116.223488 217.604431,117.115692 217.389984,118.788223 
	C217.306656,122.485237 217.406784,125.401917 217.506897,128.318604 
	C217.533066,137.140579 217.559250,145.962540 217.402527,155.681122 
	C217.314163,162.151291 217.408737,167.724854 217.503296,173.298431 
	C217.462204,174.850143 217.421097,176.401840 217.202087,178.729706 
	C215.562958,184.085953 214.101715,188.666077 212.640472,193.246185 
	C212.640472,193.246185 212.410828,193.410416 212.057266,193.657104 
	C207.730576,196.889053 203.757462,199.874329 199.784332,202.859604 
	C199.784332,202.859604 199.449249,202.934387 198.899536,202.937500 
	C196.843033,203.352051 195.336258,203.763504 193.829468,204.174957 
	C193.483887,204.193909 193.138321,204.212845 192.062531,204.149765 
	C186.364822,203.612961 181.397324,203.158173 176.429825,202.703384 
	C176.440475,202.399887 176.456802,202.096680 176.811615,201.421555 
	C177.389877,199.358459 177.635315,197.667572 177.880768,195.976685 
	C178.457520,194.799973 179.582230,193.592651 179.518448,192.451752 
	C179.201401,186.779724 183.374649,186.465805 187.083664,186.185242 
	C200.221191,185.191498 200.132721,185.294022 200.064011,172.187408 
	C199.960999,152.545319 199.993820,132.902420 200.001617,113.259865 
	C200.004059,107.115082 200.635559,100.912697 199.967712,94.848061 
	C199.590851,91.425941 198.023361,87.179153 195.507690,85.100250 
	C176.169693,69.119682 156.457520,53.592258 136.889191,37.889668 
	C133.949814,35.530968 131.154495,32.992733 127.676544,30.239365 
	C124.217880,28.319382 121.684418,28.456150 119.618118,31.249788 
	C119.618118,31.249788 119.364166,31.342022 118.984444,31.545197 
	C113.036827,36.461456 107.468933,41.174541 101.901039,45.887627 
	C101.901039,45.887627 101.996483,46.000523 101.626465,45.961121 
	C100.046211,47.028111 98.835960,48.134499 97.625717,49.240887 
	C97.625717,49.240887 97.350990,49.317451 96.968361,49.504845 
	C94.930717,51.203327 93.275696,52.714420 91.620682,54.225517 
	C91.620682,54.225517 91.341545,54.317688 90.962051,54.538330 
	C81.699364,62.149635 72.816177,69.540298 63.932991,76.930969 
	C63.932995,76.930969 64.000496,76.998352 63.679535,76.958237 
	C62.786285,77.425499 62.213997,77.932884 61.641708,78.440277 
	C61.641708,78.440277 61.540390,78.517395 61.182541,78.669533 
	C59.397568,79.955070 58.081264,81.278305 56.523411,82.187775 
	C50.901329,85.469940 49.476631,90.189819 49.573463,96.634644 
	C49.959789,122.346848 49.708138,148.068375 49.760490,173.786301 
	C49.765099,176.051102 50.262390,178.314896 50.530849,180.579147 
	C52.738129,184.834183 56.231220,186.659698 61.014919,186.483994 
	C65.495430,186.319443 70.022835,186.797852 74.460068,186.331558 
	C77.041397,186.060287 79.485947,184.487366 81.992043,183.500137 
	C81.180382,181.462173 80.367569,179.424667 79.557457,177.386078 
	C79.029381,176.057220 78.239044,174.768570 78.022812,173.390259 
	C76.678955,164.824219 75.260262,156.260605 74.303368,147.647629 
	C73.899857,144.015610 74.112358,140.174255 74.841209,136.589996 
	C75.963814,131.069397 77.420700,125.558571 79.369644,120.277519 
	C82.508286,111.772781 88.971848,105.848145 96.181274,100.766747 
	C107.028175,93.121529 119.346008,91.151344 132.265991,92.058067 
	C134.974182,92.248123 137.630386,93.178871 140.697906,94.376724 
	C142.944489,95.498505 144.803680,96.011848 146.662888,96.525200 
	C149.035355,97.720360 151.407822,98.915520 153.944290,100.753441 
	C155.077850,101.931412 156.047409,102.466614 157.016968,103.001816 
	C157.501938,103.321213 157.986908,103.640602 158.680328,104.511620 
	C160.994812,107.362114 163.100861,109.660995 165.206909,111.959869 
	C175.046890,125.773964 177.480209,140.904556 174.425278,157.506119 
	C170.717850,177.653656 163.276352,196.320190 153.366608,214.714294 
	C149.133514,220.292450 143.779861,224.564804 143.373779,231.649200 
	C143.373779,231.649200 143.357193,231.854568 142.972870,232.086258 
	C141.011703,235.034866 139.434860,237.751770 137.858032,240.468674 
	C137.858017,240.468674 137.852203,240.782867 137.398727,240.916992 
	C133.721924,245.792435 130.498611,250.533752 127.275276,255.275055 
	C127.275276,255.275055 127.045052,255.075256 126.744110,255.120956 
	C124.053093,253.706879 120.949425,252.774841 119.406509,250.688538 
	C114.751747,244.394379 110.809067,237.578934 106.361549,231.123260 
	C104.815384,228.878967 102.605217,227.092133 100.698326,225.096344 
	C100.698326,225.096344 100.520325,224.969177 100.672211,224.400818 
	C100.893677,221.588226 100.963242,219.344009 101.032806,217.099762 
	C105.124435,215.509415 109.142380,213.684204 113.321533,212.372787 
	C125.816040,208.451981 133.614990,199.021454 141.139587,189.189148 
	C147.374954,181.041458 151.731689,171.914917 155.311203,162.371109 
	C158.354767,154.256226 159.244568,145.479462 157.306061,137.467316 
	C150.805710,110.600578 122.605621,102.727089 103.201477,117.900803 
	C102.938957,118.106094 102.675095,118.309669 101.815056,118.756325 
	C100.878014,119.495613 100.537773,119.992622 100.197533,120.489624 
	C99.934486,120.884171 99.671440,121.278717 98.873756,121.860764 
	C97.862617,122.971504 97.386116,123.894737 96.909622,124.817970 
	C96.907837,125.155342 96.785316,125.440918 96.054359,126.012299 
	C95.127487,127.413261 94.688316,128.476608 94.249146,129.539963 
	C93.991707,130.449753 93.734268,131.359543 93.053833,132.737091 
	C92.358421,134.804184 92.086006,136.403503 91.813583,138.002838 
	C91.780212,138.442978 91.746849,138.883118 91.218781,139.784607 
	C89.343819,144.915115 89.960022,149.213867 93.098671,153.044617 
	C93.391968,153.819534 93.685265,154.594467 93.696053,155.902695 
	C94.316368,157.609375 95.219200,158.782730 96.122025,159.956100 
	C96.400864,160.440079 96.679703,160.924057 96.702759,161.889801 
	C97.413162,163.129318 98.379364,163.887054 99.345566,164.644791 
	C99.345558,164.644791 99.090324,164.780014 99.113380,165.103104 
	C100.209915,166.228226 101.283394,167.030258 102.356873,167.832291 
	C102.809105,168.061020 103.261337,168.289764 103.896057,169.073303 
	C105.301476,170.442337 106.524399,171.256531 107.747314,172.070740 
	C108.305031,172.361496 108.862740,172.652252 109.742355,173.468781 
	C110.861771,174.246750 111.659286,174.498947 112.456795,174.751160 
	C112.824341,174.812714 113.191887,174.874252 113.787521,175.451645 
	C115.001259,176.017395 115.986916,176.067276 116.972565,176.117172 
	C117.717499,176.107803 118.462433,176.098419 119.665016,176.531677 
	C122.102463,176.732498 124.082253,176.490662 126.062050,176.248840 
	C126.482399,176.180130 126.902740,176.111404 127.682320,176.456924 
	C128.054306,178.077042 128.558105,179.631973 127.992928,180.427017 
	C125.801689,183.509430 123.518715,186.604721 120.821510,189.235519 
	C110.417908,199.382874 96.855331,201.770432 83.289055,203.775833 
	C77.957100,204.564011 72.479561,204.367218 67.068314,204.618958 
z"/>
<path fill="#F5F8F9" opacity="1.000000" stroke="none" 
	d="
M552.977783,85.090744 
	C553.426880,85.667023 553.876038,86.243309 554.540894,87.311172 
	C552.518311,93.727814 550.280029,99.652863 547.976746,105.750160 
	C543.834473,103.942383 540.423950,102.453957 537.013428,100.965530 
	C537.013428,100.965538 537.007019,101.004555 536.872437,100.714043 
	C536.141724,100.300354 535.545593,100.177185 534.949402,100.054001 
	C534.509155,99.783875 534.068909,99.513748 533.040283,99.058777 
	C531.255493,98.623932 530.059143,98.373940 528.862732,98.123947 
	C521.131042,98.188713 513.197144,97.191406 505.723938,98.614052 
	C498.102417,100.064934 494.848083,105.688400 495.142853,112.285995 
	C495.374146,117.461571 500.645721,123.202751 506.787170,125.078308 
	C517.824890,128.449158 528.947083,131.579971 539.852295,135.338409 
	C552.195740,139.592545 559.121094,148.615051 559.921082,161.650635 
	C560.678711,173.995773 556.892883,184.669266 546.169067,191.937057 
	C535.634338,199.076767 523.809387,200.762787 511.371002,200.204651 
	C499.335968,199.664627 488.170258,196.473785 477.609192,190.720078 
	C474.213837,188.870270 473.407837,186.321320 474.072418,182.962875 
	C474.868896,178.937592 475.572144,174.860519 476.819214,170.967133 
	C478.066071,167.074371 480.633057,168.646530 483.027405,170.033478 
	C487.574097,172.667175 491.951599,175.776321 496.796631,177.673248 
	C506.728302,181.561722 517.166748,181.720184 527.634888,180.180740 
	C532.532288,179.460556 538.037537,174.067627 539.246704,169.828735 
	C540.547485,165.268951 536.478149,157.763870 532.254456,155.930237 
	C527.249573,153.757477 522.092896,151.893127 516.903381,150.196915 
	C509.327271,147.720673 501.642487,145.579102 494.042084,143.174652 
	C484.671417,140.210175 477.681091,133.466141 474.865936,124.857079 
	C472.770660,118.449493 474.011658,110.275475 475.788452,103.411499 
	C480.084473,86.815331 493.375641,80.915031 508.793671,78.251053 
	C523.461853,75.716637 537.365845,78.305580 551.322998,84.567131 
	C552.212830,84.973946 552.595276,85.032341 552.977783,85.090744 
z"/>
<path fill="#F3F7F7" opacity="1.000000" stroke="none" 
	d="
M657.408569,112.372375 
	C669.144165,108.889709 680.598450,107.135498 692.466553,109.136566 
	C705.500122,111.334152 718.632202,124.073586 719.284851,137.410690 
	C719.796753,147.872559 719.841187,158.360168 719.954224,168.837845 
	C720.058105,178.471954 719.976257,188.108078 719.976257,198.808868 
	C713.795410,198.489365 707.946411,198.743347 702.371460,197.627945 
	C700.107849,197.175049 698.440491,193.741791 696.380493,191.534622 
	C686.410156,200.964966 673.453979,201.625412 659.468140,198.226700 
	C652.017578,196.416138 648.259460,190.617081 644.598755,185.137802 
	C636.197571,172.563004 645.056335,151.414581 661.919312,148.392715 
	C669.817017,146.977432 677.720703,144.821594 686.081299,146.884720 
	C689.719360,147.782486 694.472046,148.940170 697.632507,144.915924 
	C698.503174,143.807205 699.407959,142.005295 699.112183,140.816223 
	C697.028442,132.439560 689.155701,126.553505 680.256836,126.000801 
	C672.410034,125.513420 665.007446,126.962334 658.057556,130.518494 
	C651.745544,133.748199 648.571655,132.290466 647.282104,125.279617 
	C645.879333,117.653595 647.120605,116.020744 657.408569,112.372375 
M691.599121,181.294495 
	C697.837952,177.742554 698.429443,171.291306 699.118408,165.283005 
	C699.302002,163.681656 696.283020,160.210754 694.650696,160.157364 
	C686.562622,159.892853 678.311218,159.676758 670.378479,161.004135 
	C662.508484,162.320999 659.513550,172.747421 664.392761,178.914719 
	C670.487061,186.617752 683.631348,186.732071 691.599121,181.294495 
z"/>
<path fill="#F4F7F7" opacity="1.000000" stroke="none" 
	d="
M773.003418,224.050323 
	C772.370911,224.714218 771.738403,225.378098 770.488159,226.135635 
	C769.255127,226.843292 768.639771,227.457291 768.024475,228.071289 
	C758.592651,235.395752 738.380798,232.191376 731.621460,226.668625 
	C730.664246,225.886536 730.196411,223.509888 730.613586,222.235001 
	C731.696411,218.925781 733.657288,215.907333 734.782227,212.607315 
	C735.933655,209.229599 737.772217,208.586365 740.810120,209.982773 
	C743.975525,211.437805 747.107178,213.017365 750.386658,214.160492 
	C754.667175,215.652512 758.562134,215.098694 760.957703,210.664841 
	C764.246094,204.578476 766.606812,199.374725 763.385620,191.351501 
	C758.911560,180.207779 754.855530,168.948364 749.379028,158.188538 
	C745.272705,150.120926 741.212097,141.838379 738.739929,133.191574 
	C736.772156,126.308792 733.995850,120.152069 730.347534,114.142441 
	C728.744751,111.502220 730.816406,110.024529 733.249817,109.939812 
	C738.737671,109.748764 744.251953,109.672859 749.720886,110.050934 
	C751.041565,110.142235 752.826904,111.944527 753.384583,113.359619 
	C760.295105,130.893341 766.978760,148.516357 773.859314,166.062073 
	C774.438293,167.538498 775.994324,169.624893 777.131775,169.647507 
	C778.689880,169.678497 780.946289,168.372269 781.716064,166.981827 
	C783.163452,164.367783 783.703308,161.262650 784.724182,158.398712 
	C786.553223,153.267761 788.496948,148.177704 790.322205,143.045456 
	C792.158325,137.882278 793.458008,132.472565 795.811279,127.563194 
	C798.715393,121.504593 797.840881,112.566338 805.957825,110.302757 
	C810.962891,108.906998 816.674255,110.044205 823.024963,110.044205 
	C811.597900,138.371368 800.497314,165.889328 788.933228,193.913849 
	C787.018250,198.319504 785.566589,202.218613 784.114990,206.117722 
	C784.114990,206.117722 784.031189,206.058426 783.789062,206.224304 
	C780.032471,212.276901 776.517944,218.163620 773.003418,224.050323 
z"/>
<path fill="#F3F7F7" opacity="1.000000" stroke="none" 
	d="
M878.706848,167.200745 
	C878.706848,167.200729 878.318604,167.118988 878.141724,166.604950 
	C877.125916,165.918121 876.286926,165.745316 875.447937,165.572510 
	C867.336731,163.780060 859.246765,161.883301 851.108948,160.221115 
	C840.530457,158.060410 833.429749,151.680405 829.478394,141.963181 
	C828.457581,139.452866 828.503296,135.696960 829.656311,133.272995 
	C832.625183,127.031685 836.417053,121.171753 840.062561,115.272209 
	C840.688110,114.259949 842.129211,113.584793 843.334961,113.123085 
	C860.178162,106.673401 877.038391,106.315262 893.948059,112.984840 
	C897.760986,114.488716 898.385620,116.603783 896.815430,120.336838 
	C892.116882,131.507812 892.353271,131.116684 880.918579,128.004608 
	C874.790894,126.336891 868.151001,125.834473 861.772827,125.997963 
	C854.900513,126.174126 850.800415,130.117386 850.807617,134.703247 
	C850.814270,138.928467 856.082947,143.217911 861.968262,144.438354 
	C870.002625,146.104446 877.968628,148.111069 885.937927,150.076996 
	C894.958557,152.302322 900.423950,158.277847 901.866699,167.221924 
	C903.458984,177.092560 900.496094,185.696457 892.249451,191.949112 
	C883.430969,198.635315 873.128723,200.220398 862.486572,199.980423 
	C851.907837,199.741882 841.672485,197.655914 832.333252,192.372818 
	C828.637329,190.282043 826.668152,187.630463 830.622192,183.854095 
	C831.053833,183.441879 831.238159,182.703629 831.394775,182.080765 
	C833.346924,174.316483 835.880920,173.349792 843.259338,177.039368 
	C854.480530,182.650497 866.035645,185.834244 878.260193,180.156006 
	C879.722534,179.476746 880.782288,177.930786 882.439941,176.314392 
	C884.581970,173.890533 885.102905,172.136520 882.054382,170.965729 
	C882.054382,170.965729 881.997864,170.994629 882.050293,170.590210 
	C880.970825,169.190781 879.838806,168.195755 878.706848,167.200745 
z"/>
<path fill="#F5F9F9" opacity="1.000000" stroke="none" 
	d="
M392.870483,177.578857 
	C396.681488,172.800491 400.306976,168.347214 404.001556,163.952026 
	C406.067383,161.494446 408.464752,159.289368 410.331573,156.696152 
	C414.235107,151.273804 417.802979,145.610275 421.687897,140.173843 
	C422.964111,138.387970 424.987518,137.142731 426.307983,135.379700 
	C427.372650,133.958176 428.948578,131.505005 428.423950,130.618744 
	C427.493378,129.046738 425.165985,127.428619 423.380005,127.379013 
	C412.578674,127.078926 401.763184,127.096184 390.956726,127.272171 
	C386.862396,127.338860 384.252655,126.744316 385.885956,121.805168 
	C386.036896,121.348701 385.948303,120.812637 385.968689,120.313438 
	C386.436218,108.857941 386.427795,108.960320 397.680817,109.878319 
	C404.586060,110.441635 411.529999,111.040733 418.441620,110.898338 
	C429.316498,110.674286 440.181335,109.881973 451.045288,109.242950 
	C456.048370,108.948669 456.957306,109.962692 457.182556,115.027481 
	C457.424805,120.475243 455.691528,124.778770 452.219818,129.056122 
	C438.937439,145.421036 426.013031,162.076477 412.259552,179.504669 
	C416.897125,180.112762 420.726959,181.022797 424.560120,181.037247 
	C434.142181,181.073395 443.729706,180.806702 453.306915,180.446289 
	C457.280792,180.296738 459.262543,181.562134 459.058777,185.802002 
	C458.867828,189.776123 459.017944,193.766663 459.017944,198.139130 
	C457.266632,198.293747 455.661926,198.552887 454.056274,198.559341 
	C433.901733,198.640488 413.746948,198.741959 393.592438,198.713104 
	C384.568237,198.700180 382.081482,194.694092 386.208160,186.396255 
	C387.763611,183.268661 390.510254,180.733459 392.870483,177.578857 
z"/>
<path fill="#F4F8F8" opacity="1.000000" stroke="none" 
	d="
M284.665680,174.921463 
	C284.519562,173.179428 284.373444,171.437378 284.571350,168.937256 
	C284.798676,165.552109 284.682007,162.925064 284.565369,160.298004 
	C284.481903,159.684586 284.398438,159.071152 284.780396,158.123047 
	C285.477570,157.487686 285.709320,157.187042 285.941071,156.886383 
	C288.212799,142.195541 298.966614,136.120255 311.523743,132.343536 
	C319.030334,130.085815 326.782196,128.525208 334.516479,127.186974 
	C339.179901,126.380081 344.021118,126.600700 349.057770,126.345657 
	C349.057770,132.896530 349.057770,138.660477 349.057770,145.069611 
	C343.296356,145.069611 337.671844,144.742889 332.105011,145.169388 
	C327.352417,145.533524 322.484314,146.220505 317.989685,147.726639 
	C309.607605,150.535507 305.065063,157.436295 305.720734,165.031311 
	C306.319580,171.967621 313.429626,178.981750 321.226379,180.453674 
	C325.167542,181.197693 329.052307,182.622025 333.005005,182.800827 
	C336.078217,182.939850 339.215424,181.618790 342.327148,180.960724 
	C354.955627,178.290131 366.010956,172.628632 375.451843,163.776230 
	C379.246033,160.218506 383.444916,157.079376 387.115479,153.405838 
	C392.200439,148.316757 396.777100,142.711365 401.969910,137.743561 
	C403.563629,136.218842 406.463623,136.059525 408.695007,135.907196 
	C408.069458,137.616394 407.514313,138.693359 406.959167,139.770340 
	C406.671448,140.424713 406.383728,141.079086 405.617493,141.959015 
	C404.938782,142.346405 404.865875,142.553101 404.920227,142.804672 
	C404.920227,142.804672 404.930511,142.946930 404.564819,143.108795 
	C403.227814,145.266464 402.256531,147.262283 401.285248,149.258102 
	C401.285248,149.258102 401.046722,149.055420 400.872711,149.217407 
	C400.476013,149.925537 400.253296,150.471664 400.030579,151.017792 
	C400.030579,151.017792 400.001221,151.003571 399.668274,151.044205 
	C398.877686,152.041687 398.420044,152.998535 397.962433,153.955383 
	C397.396271,154.782959 396.830139,155.610550 395.730469,156.730988 
	C393.563721,159.453323 391.930573,161.882797 390.297424,164.312256 
	C390.297394,164.312256 390.063019,164.091629 389.892456,164.263336 
	C389.541199,164.789993 389.360474,165.144958 389.179749,165.499908 
	C388.933685,165.911072 388.687622,166.322220 387.988586,166.962372 
	C387.377563,167.493881 387.219482,167.796402 387.061401,168.098923 
	C387.061401,168.098923 387.014679,168.008163 386.702423,168.030670 
	C380.620026,174.119583 374.849884,180.185974 369.079742,186.252365 
	C369.047607,186.584167 368.882568,186.824753 367.975037,186.978180 
	C364.991699,188.080002 362.404816,188.868423 360.282074,190.330658 
	C352.306519,195.824509 343.813477,198.853027 333.899872,198.200012 
	C327.632751,197.787216 321.284637,198.603760 314.972870,198.868927 
	C314.525574,198.814468 314.078308,198.760025 313.207886,198.205170 
	C306.954254,195.090836 301.123749,192.476898 295.293274,189.862976 
	C295.293274,189.862976 295.120697,189.896027 295.093994,189.508698 
	C294.210785,188.365021 293.354248,187.608688 292.497681,186.852356 
	C292.134308,186.674057 291.770935,186.495743 291.249115,185.688263 
	C288.949005,181.679886 286.807343,178.300674 284.665680,174.921463 
z"/>
<path fill="#F3F7F7" opacity="1.000000" stroke="none" 
	d="
M569.049988,112.102966 
	C571.597412,111.732544 574.134827,111.161064 576.694397,111.032906 
	C582.281372,110.753166 584.037964,108.763603 583.793945,103.369934 
	C583.061890,87.190964 581.777832,87.318245 598.231140,87.490677 
	C599.542297,87.504417 600.852539,87.603310 602.876831,87.694931 
	C602.876831,93.238335 602.883606,98.631775 602.874878,104.025200 
	C602.866089,109.484306 604.258179,111.104614 609.825562,111.033661 
	C613.913818,110.981560 617.995544,110.064568 622.077454,110.084541 
	C623.344666,110.090736 625.638611,111.855789 625.686584,112.897362 
	C625.896301,117.453911 625.453674,122.040474 625.227600,127.065002 
	C618.275208,127.065002 611.024902,127.065002 603.318054,127.065002 
	C603.138672,129.034729 602.873657,130.625168 602.868286,132.216507 
	C602.830505,143.369125 602.737183,154.523712 602.918945,165.673462 
	C602.966553,168.595688 603.772827,171.540161 604.489197,174.409882 
	C606.128479,180.977127 613.888000,183.057312 618.865479,181.391541 
	C625.743774,179.089676 626.686890,179.687531 629.171448,186.180710 
	C632.186890,194.061325 631.450806,195.716644 623.162476,198.083282 
	C615.342590,200.316177 607.398376,200.686646 599.569031,198.139114 
	C590.636719,195.232666 584.189514,187.185791 583.873413,177.869934 
	C583.439392,165.073914 583.440063,152.260391 583.452637,139.454575 
	C583.454773,137.270447 584.448669,135.087280 584.984070,132.102631 
	C585.003967,129.119232 584.571777,127.406570 581.743958,128.181473 
	C581.321594,128.012390 580.899292,127.843315 579.882690,127.246353 
	C576.571899,126.855980 573.855286,126.893486 571.138672,126.931000 
	C570.961243,126.909500 570.783875,126.888000 570.316040,126.347908 
	C569.700439,121.253860 569.375183,116.678413 569.049988,112.102966 
z"/>
<path fill="#F3F8F8" opacity="1.000000" stroke="none" 
	d="
M340.511841,96.132462 
	C334.259796,96.328918 328.258636,95.670853 322.702026,96.947639 
	C310.105347,99.842087 306.803101,108.820099 313.526794,119.869438 
	C313.769226,120.267799 313.833160,120.774773 313.977570,121.222725 
	C308.226776,123.514061 302.611877,125.881584 296.897247,127.977196 
	C293.690186,129.153229 290.878204,125.680962 289.636780,121.143120 
	C287.357910,112.812904 288.742340,105.476181 292.272369,97.609962 
	C295.338104,90.778397 299.799866,85.996635 306.114685,83.181526 
	C321.378021,76.377243 337.266571,75.095802 353.483032,79.612831 
	C357.452667,80.718552 361.445496,81.764206 365.352783,83.062790 
	C368.038849,83.955498 368.755798,85.752480 367.503876,88.549477 
	C366.017242,91.870872 364.693604,95.314156 363.778076,98.829308 
	C362.741058,102.810661 360.843994,102.597633 357.567841,101.349197 
	C352.159210,99.288155 346.511505,97.854454 340.511841,96.132462 
z"/>
<path fill="#C3D9DB" opacity="1.000000" stroke="none" 
	d="
M67.412262,204.821548 
	C72.479561,204.367218 77.957100,204.564011 83.289055,203.775833 
	C96.855331,201.770432 110.417908,199.382874 120.821510,189.235519 
	C123.518715,186.604721 125.801689,183.509430 127.992928,180.427017 
	C128.558105,179.631973 128.054306,178.077042 127.995407,176.535950 
	C129.229950,176.126144 130.510635,176.051575 132.837601,175.916077 
	C131.657898,177.987564 130.982407,179.374374 130.129028,180.641357 
	C120.786087,194.512527 107.317604,201.785812 91.136986,203.991180 
	C83.439468,205.040344 75.555649,204.722641 67.412262,204.821548 
z"/>
<path fill="#213E4B" opacity="1.000000" stroke="none" 
	d="
M50.691513,180.091736 
	C50.262390,178.314896 49.765099,176.051102 49.760490,173.786301 
	C49.708138,148.068375 49.959789,122.346848 49.573463,96.634644 
	C49.476631,90.189819 50.901329,85.469940 56.523411,82.187775 
	C58.081264,81.278305 59.397568,79.955070 61.133171,78.709717 
	C60.886261,79.791168 60.637455,81.345024 59.726234,82.120064 
	C53.334423,87.556625 50.585716,93.923454 50.781746,102.726166 
	C51.352165,128.340042 50.902050,153.976624 50.691513,180.091736 
z"/>
<path fill="#C8E3E8" opacity="1.000000" stroke="none" 
	d="
M315.327271,199.052597 
	C321.284637,198.603760 327.632751,197.787216 333.899872,198.200012 
	C343.813477,198.853027 352.306519,195.824509 360.282074,190.330658 
	C362.404816,188.868423 364.991699,188.080002 367.749847,187.007019 
	C354.460297,199.290680 338.039673,201.454300 320.627258,199.932831 
	C318.971100,199.788116 317.329865,199.472534 315.327271,199.052597 
z"/>
<path fill="#C9DCDF" opacity="1.000000" stroke="none" 
	d="
M100.779572,225.458893 
	C102.605217,227.092133 104.815384,228.878967 106.361549,231.123260 
	C110.809067,237.578934 114.751747,244.394379 119.406509,250.688538 
	C120.949425,252.774841 124.053093,253.706879 126.847214,255.233215 
	C123.637352,259.204681 121.140671,256.125214 119.346771,253.544144 
	C113.009109,244.425339 106.996605,235.080551 100.779572,225.458893 
z"/>
<path fill="#213E4B" opacity="1.000000" stroke="none" 
	d="
M64.307785,77.018677 
	C72.816177,69.540298 81.699364,62.149635 90.883247,54.662399 
	C92.664536,59.259876 87.798912,59.752136 85.843376,61.616623 
	C80.299835,66.902061 73.928818,71.326256 67.812958,75.997025 
	C66.975525,76.636581 65.735962,76.749580 64.307785,77.018677 
z"/>
<path fill="#234555" opacity="1.000000" stroke="none" 
	d="
M537.048828,101.312988 
	C540.423950,102.453957 543.834473,103.942383 547.976746,105.750160 
	C550.280029,99.652863 552.518311,93.727814 554.787964,87.433197 
	C555.514832,88.775368 557.156372,90.783218 556.730469,92.143990 
	C555.387817,96.433701 553.598328,100.680786 551.267334,104.509315 
	C550.487793,105.789589 547.300354,106.628113 545.667114,106.142708 
	C542.630371,105.240143 539.926636,103.217056 537.048828,101.312988 
z"/>
<path fill="#213E4B" opacity="1.000000" stroke="none" 
	d="
M102.285919,45.966846 
	C107.468933,41.174541 113.036827,36.461456 118.909912,31.657866 
	C117.919296,33.560200 117.013412,36.043755 115.248466,37.446156 
	C111.282242,40.597637 106.889771,43.212669 102.285919,45.966846 
z"/>
<path fill="#C8E3E8" opacity="1.000000" stroke="none" 
	d="
M369.429962,186.197357 
	C374.849884,180.185974 380.620026,174.119583 386.740997,168.064117 
	C381.321259,174.097458 375.550720,180.119904 369.429962,186.197357 
z"/>
<path fill="#CFE6EC" opacity="1.000000" stroke="none" 
	d="
M773.325195,223.939728 
	C776.517944,218.163620 780.032471,212.276901 783.840454,206.224609 
	C780.638245,211.982391 777.142639,217.905746 773.325195,223.939728 
z"/>
<path fill="#C9DCDF" opacity="1.000000" stroke="none" 
	d="
M143.686600,231.496277 
	C143.779861,224.564804 149.133514,220.292450 153.106689,214.976364 
	C150.274445,220.374954 147.136932,225.859161 143.686600,231.496277 
z"/>
<path fill="#50737F" opacity="1.000000" stroke="none" 
	d="
M217.964752,115.187096 
	C217.666428,111.940552 217.666428,108.549820 217.666428,104.462128 
	C220.438766,106.480721 222.783020,108.187607 225.287598,110.190910 
	C223.052963,112.005852 220.658020,113.524384 217.964752,115.187096 
z"/>
<path fill="#C9DCDF" opacity="1.000000" stroke="none" 
	d="
M127.602814,255.210754 
	C130.498611,250.533752 133.721924,245.792435 137.251434,240.971725 
	C134.348541,245.643692 131.139450,250.395065 127.602814,255.210754 
z"/>
<path fill="#50737F" opacity="1.000000" stroke="none" 
	d="
M212.970642,193.410278 
	C214.101715,188.666077 215.562958,184.085953 217.202942,179.118042 
	C219.904800,184.084808 218.305252,189.903122 212.970642,193.410278 
z"/>
<path fill="#ACB6B7" opacity="1.000000" stroke="none" 
	d="
M568.657227,112.156387 
	C569.375183,116.678413 569.700439,121.253860 570.087280,126.208321 
	C569.204590,125.920219 567.441040,125.242622 567.449402,124.587685 
	C567.502197,120.458931 567.948303,116.335205 568.657227,112.156387 
z"/>
<path fill="#C8E3E8" opacity="1.000000" stroke="none" 
	d="
M295.342773,190.194397 
	C301.123749,192.476898 306.954254,195.090836 312.944519,197.985107 
	C307.200317,195.685562 301.296326,193.105682 295.342773,190.194397 
z"/>
<path fill="#50737F" opacity="1.000000" stroke="none" 
	d="
M200.188644,202.939972 
	C203.757462,199.874329 207.730576,196.889053 211.996826,193.784668 
	C213.378799,198.361679 209.389191,199.444214 206.655045,201.134827 
	C204.912125,202.212555 202.632141,202.421753 200.188644,202.939972 
z"/>
<path fill="#50737F" opacity="1.000000" stroke="none" 
	d="
M217.823975,173.089417 
	C217.408737,167.724854 217.314163,162.151291 217.428528,156.126373 
	C217.806519,161.410156 217.975586,167.145264 217.823975,173.089417 
z"/>
<path fill="#50737F" opacity="1.000000" stroke="none" 
	d="
M176.314392,203.077515 
	C181.397324,203.158173 186.364822,203.612961 191.805725,204.188232 
	C187.961273,206.861694 179.373962,206.403976 176.314392,203.077515 
z"/>
<path fill="#CFE6EC" opacity="1.000000" stroke="none" 
	d="
M784.405151,205.972778 
	C785.566589,202.218613 787.018250,198.319504 788.754272,194.217682 
	C787.590942,197.952606 786.143188,201.890213 784.405151,205.972778 
z"/>
<path fill="#C8E3E8" opacity="1.000000" stroke="none" 
	d="
M284.503113,175.252930 
	C286.807343,178.300674 288.949005,181.679886 291.083374,185.427002 
	C288.830933,182.391373 286.585754,178.987885 284.503113,175.252930 
z"/>
<path fill="#C3D9DB" opacity="1.000000" stroke="none" 
	d="
M93.160515,152.614624 
	C89.960022,149.213867 89.343819,144.915115 91.035492,140.065002 
	C91.972054,143.984253 92.597206,148.084427 93.160515,152.614624 
z"/>
<path fill="#C9DCDF" opacity="1.000000" stroke="none" 
	d="
M100.700974,217.140549 
	C100.963242,219.344009 100.893677,221.588226 100.649841,224.293732 
	C99.428627,223.380966 98.381683,222.006912 96.905373,220.069351 
	C98.087479,219.083725 99.228310,218.132523 100.700974,217.140549 
z"/>
<path fill="#C9DCDF" opacity="1.000000" stroke="none" 
	d="
M138.124329,240.332520 
	C139.434860,237.751770 141.011703,235.034866 142.885803,232.141357 
	C141.585587,234.708618 139.988098,237.452484 138.124329,240.332520 
z"/>
<path fill="#C8E3E8" opacity="1.000000" stroke="none" 
	d="
M390.613434,164.209106 
	C391.930573,161.882797 393.563721,159.453323 395.538483,156.967834 
	C394.229858,159.309845 392.579651,161.707886 390.613434,164.209106 
z"/>
<path fill="#50737F" opacity="1.000000" stroke="none" 
	d="
M217.813721,128.117676 
	C217.406784,125.401917 217.306656,122.485237 217.414978,119.122543 
	C217.789124,121.756599 217.954819,124.836662 217.813721,128.117676 
z"/>
<path fill="#C2D4D6" opacity="1.000000" stroke="none" 
	d="
M165.279480,111.602478 
	C163.100861,109.660995 160.994812,107.362114 158.889313,104.716782 
	C161.043930,106.661919 163.197998,108.953506 165.279480,111.602478 
z"/>
<path fill="#213E4B" opacity="1.000000" stroke="none" 
	d="
M91.952087,54.446777 
	C93.275696,52.714420 94.930717,51.203327 96.884399,49.620102 
	C97.934151,53.536251 95.081978,54.076454 91.952087,54.446777 
z"/>
<path fill="#C8E3E8" opacity="1.000000" stroke="none" 
	d="
M284.318787,160.589798 
	C284.682007,162.925064 284.798676,165.552109 284.683289,168.509216 
	C284.324921,166.186722 284.198578,163.534149 284.318787,160.589798 
z"/>
<path fill="#C8E3E8" opacity="1.000000" stroke="none" 
	d="
M407.222656,139.611771 
	C407.514313,138.693359 408.069458,137.616394 408.794006,136.284607 
	C409.486115,136.182663 410.008850,136.335510 410.883606,136.591309 
	C409.777771,137.522797 408.631958,138.487991 407.222656,139.611771 
z"/>
<path fill="#213E4B" opacity="1.000000" stroke="none" 
	d="
M120.014290,31.452950 
	C121.684418,28.456150 124.217880,28.319382 127.337265,30.188972 
	C125.212807,30.843212 122.811638,31.249662 120.014290,31.452950 
z"/>
<path fill="#C8E3E8" opacity="1.000000" stroke="none" 
	d="
M401.596130,149.130249 
	C402.256531,147.262283 403.227814,145.266464 404.493774,143.102356 
	C403.827942,144.956848 402.867462,146.979630 401.596130,149.130249 
z"/>
<path fill="#C3D9DB" opacity="1.000000" stroke="none" 
	d="
M125.634727,176.134949 
	C124.082253,176.490662 122.102463,176.732498 120.025185,176.634567 
	C121.687607,176.203552 123.447502,176.112305 125.634727,176.134949 
z"/>
<path fill="#C3D9DB" opacity="1.000000" stroke="none" 
	d="
M92.021797,137.736420 
	C92.086006,136.403503 92.358421,134.804184 92.876160,133.046753 
	C92.824318,134.415771 92.527168,135.942886 92.021797,137.736420 
z"/>
<path fill="#213E4B" opacity="1.000000" stroke="none" 
	d="
M97.942215,49.480377 
	C98.835960,48.134499 100.046211,47.028111 101.576004,45.906616 
	C100.683281,47.167625 99.471001,48.443745 97.942215,49.480377 
z"/>
<path fill="#50737F" opacity="1.000000" stroke="none" 
	d="
M177.497375,196.037994 
	C177.635315,197.667572 177.389877,199.358459 176.815598,201.193832 
	C176.695831,199.591980 176.904892,197.845627 177.497375,196.037994 
z"/>
<path fill="#ACB6B7" opacity="1.000000" stroke="none" 
	d="
M581.892334,128.482056 
	C584.571777,127.406570 585.003967,129.119232 584.949707,131.709290 
	C583.957336,131.005539 582.999023,129.894104 581.892334,128.482056 
z"/>
<path fill="#B5BABA" opacity="1.000000" stroke="none" 
	d="
M882.071289,171.391266 
	C885.102905,172.136520 884.581970,173.890533 882.512329,175.950073 
	C882.145081,174.644226 882.116638,173.230530 882.071289,171.391266 
z"/>
<path fill="#B5BABA" opacity="1.000000" stroke="none" 
	d="
M878.822754,167.514389 
	C879.838806,168.195755 880.970825,169.190781 882.069824,170.565125 
	C881.004089,169.905640 879.971375,168.866837 878.822754,167.514389 
z"/>
<path fill="#C3D9DB" opacity="1.000000" stroke="none" 
	d="
M96.112076,159.622940 
	C95.219200,158.782730 94.316368,157.609375 93.660744,156.214981 
	C94.639343,157.092560 95.370735,158.191177 96.112076,159.622940 
z"/>
<path fill="#ACB6B7" opacity="1.000000" stroke="none" 
	d="
M571.459167,127.143814 
	C573.855286,126.893486 576.571899,126.855980 579.620239,127.022568 
	C577.227844,127.269997 574.503723,127.313316 571.459167,127.143814 
z"/>
<path fill="#C2D4D6" opacity="1.000000" stroke="none" 
	d="
M146.430939,96.266876 
	C144.803680,96.011848 142.944489,95.498505 141.008789,94.630905 
	C142.687851,94.853958 144.443405,95.431259 146.430939,96.266876 
z"/>
<path fill="#C3D9DB" opacity="1.000000" stroke="none" 
	d="
M107.690216,171.756012 
	C106.524399,171.256531 105.301476,170.442337 104.049469,169.278351 
	C105.224632,169.766129 106.428879,170.603699 107.690216,171.756012 
z"/>
<path fill="#234555" opacity="1.000000" stroke="none" 
	d="
M528.939209,98.451401 
	C530.059143,98.373940 531.255493,98.623932 532.777283,99.057571 
	C531.740356,99.087105 530.378052,98.932976 528.939209,98.451401 
z"/>
<path fill="#50737F" opacity="1.000000" stroke="none" 
	d="
M194.121368,204.329041 
	C195.336258,203.763504 196.843033,203.352051 198.739197,202.998810 
	C197.556793,203.532364 195.985031,204.007736 194.121368,204.329041 
z"/>
<path fill="#C3D9DB" opacity="1.000000" stroke="none" 
	d="
M99.302238,164.334976 
	C98.379364,163.887054 97.413162,163.129318 96.702011,162.179840 
	C97.724350,162.667114 98.491631,163.346146 99.302238,164.334976 
z"/>
<path fill="#C8E3E8" opacity="1.000000" stroke="none" 
	d="
M292.455872,187.170181 
	C293.354248,187.608688 294.210785,188.365021 295.097565,189.420898 
	C294.223236,188.976303 293.318665,188.232162 292.455872,187.170181 
z"/>
<path fill="#C3D9DB" opacity="1.000000" stroke="none" 
	d="
M102.270096,167.522598 
	C101.283394,167.030258 100.209915,166.228226 99.250343,165.057297 
	C100.303940,165.529892 101.243629,166.371399 102.270096,167.522598 
z"/>
<path fill="#C3D9DB" opacity="1.000000" stroke="none" 
	d="
M97.176094,124.661102 
	C97.386116,123.894737 97.862617,122.971504 98.672119,121.995941 
	C98.484268,122.797150 97.963417,123.650688 97.176094,124.661102 
z"/>
<path fill="#C3D9DB" opacity="1.000000" stroke="none" 
	d="
M116.700272,175.946716 
	C115.986916,176.067276 115.001259,176.017395 113.972015,175.669891 
	C114.761597,175.506958 115.594780,175.641617 116.700272,175.946716 
z"/>
<path fill="#C2D4D6" opacity="1.000000" stroke="none" 
	d="
M156.926544,102.692093 
	C156.047409,102.466614 155.077850,101.931412 154.133789,101.023094 
	C155.051559,101.227455 155.943848,101.804916 156.926544,102.692093 
z"/>
<path fill="#C8E3E8" opacity="1.000000" stroke="none" 
	d="
M398.244019,153.820312 
	C398.420044,152.998535 398.877686,152.041687 399.678711,151.057190 
	C399.523254,151.914764 399.024445,152.800003 398.244019,153.820312 
z"/>
<path fill="#C3D9DB" opacity="1.000000" stroke="none" 
	d="
M94.520233,129.469299 
	C94.688316,128.476608 95.127487,127.413261 95.864883,126.156654 
	C95.705849,127.108475 95.248589,128.253555 94.520233,129.469299 
z"/>
<path fill="#B5BABA" opacity="1.000000" stroke="none" 
	d="
M875.637817,165.814575 
	C876.286926,165.745316 877.125916,165.918121 878.018188,166.449738 
	C877.323486,166.557922 876.575562,166.307281 875.637817,165.814575 
z"/>
<path fill="#C3D9DB" opacity="1.000000" stroke="none" 
	d="
M112.275833,174.504852 
	C111.659286,174.498947 110.861771,174.246750 109.998611,173.652969 
	C110.653603,173.627121 111.374237,173.942841 112.275833,174.504852 
z"/>
<path fill="#213E4B" opacity="1.000000" stroke="none" 
	d="
M61.973881,78.592300 
	C62.213997,77.932884 62.786285,77.425499 63.649406,76.921066 
	C63.395508,77.530785 62.850780,78.137558 61.973881,78.592300 
z"/>
<path fill="#CFE6EC" opacity="1.000000" stroke="none" 
	d="
M768.365967,228.066803 
	C768.639771,227.457291 769.255127,226.843292 770.209961,226.192108 
	C769.935425,226.790726 769.321472,227.426514 768.365967,228.066803 
z"/>
<path fill="#C8E3E8" opacity="1.000000" stroke="none" 
	d="
M405.102966,142.760620 
	C404.865875,142.553101 404.938782,142.346405 405.307129,142.146393 
	C405.588196,142.104050 405.701080,142.099869 405.813965,142.095688 
	C405.637848,142.302643 405.461761,142.509598 405.102966,142.760620 
z"/>
<path fill="#C8E3E8" opacity="1.000000" stroke="none" 
	d="
M400.322113,150.928650 
	C400.253296,150.471664 400.476013,149.925537 401.002930,149.304230 
	C401.075958,149.765884 400.844818,150.302704 400.322113,150.928650 
z"/>
<path fill="#C3D9DB" opacity="1.000000" stroke="none" 
	d="
M100.501816,120.428635 
	C100.537773,119.992622 100.878014,119.495613 101.539047,118.955933 
	C101.508591,119.398048 101.157349,119.882843 100.501816,120.428635 
z"/>
<path fill="#234555" opacity="1.000000" stroke="none" 
	d="
M535.089478,100.345993 
	C535.545593,100.177185 536.141724,100.300354 536.886108,100.699371 
	C536.432739,100.862801 535.831177,100.750397 535.089478,100.345993 
z"/>
<path fill="#C8E3E8" opacity="1.000000" stroke="none" 
	d="
M387.346924,168.054626 
	C387.219482,167.796402 387.377563,167.493881 387.781799,167.094742 
	C387.896118,167.335526 387.764282,167.672928 387.346924,168.054626 
z"/>
<path fill="#C8E3E8" opacity="1.000000" stroke="none" 
	d="
M285.630371,156.953033 
	C285.709320,157.187042 285.477570,157.487686 284.966187,157.864456 
	C284.897614,157.633591 285.108643,157.326630 285.630371,156.953033 
z"/>
<path fill="#234555" opacity="1.000000" stroke="none" 
	d="
M552.815674,84.826080 
	C552.595276,85.032341 552.212830,84.973946 551.660583,84.673264 
	C551.878418,84.474472 552.266052,84.517952 552.815674,84.826080 
z"/>
<path fill="#C8E3E8" opacity="1.000000" stroke="none" 
	d="
M389.486511,165.429321 
	C389.360474,165.144958 389.541199,164.789993 390.023254,164.357086 
	C390.147522,164.639008 389.970428,164.998871 389.486511,165.429321 
z"/>
<path fill="#07090B" opacity="1.000000" stroke="none" 
	d="
M691.228149,181.402252 
	C683.631348,186.732071 670.487061,186.617752 664.392761,178.914719 
	C659.513550,172.747421 662.508484,162.320999 670.378479,161.004135 
	C678.311218,159.676758 686.562622,159.892853 694.650696,160.157364 
	C696.283020,160.210754 699.302002,163.681656 699.118408,165.283005 
	C698.429443,171.291306 697.837952,177.742554 691.228149,181.402252 
z"/>
</svg>